<?xml version="1.0" encoding="UTF-8"?>
<svg version="1.1" xmlns="http://www.w3.org/2000/svg" width="512" height="512">
<path d="M0 0 C0.89106445 0.47920898 1.78212891 0.95841797 2.70019531 1.45214844 C7.70512778 4.2162811 12.43622434 7.19368659 17.11328125 10.484375 C27.30480203 18.43960705 27.30480203 18.43960705 39.34375 21.44921875 C42.90853171 20.73713293 46.23047437 19.39780281 49.60644531 18.07373047 C76.21980832 8.91486809 121.80616716 8.35137465 148.09765625 18.69921875 C151 20.25 151 20.25 153 23.25 C153.125 25.9375 153.125 25.9375 153 28.25 C153.6290625 28.37117188 154.258125 28.49234375 154.90625 28.6171875 C155.7621875 28.78476562 156.618125 28.95234375 157.5 29.125 C158.86511719 29.38990234 158.86511719 29.38990234 160.2578125 29.66015625 C162.68412859 30.18205615 165.00282731 30.8418966 167.375 31.5625 C170.89424267 32.66808646 170.89424267 32.66808646 173.0625 30.875 C173.701875 30.33875 174.34125 29.8025 175 29.25 C182.0221249 28.21456603 187.19211738 31.33105368 193.3125 34.5 C194.90167236 35.31102173 194.90167236 35.31102173 196.52294922 36.13842773 C206.17593387 41.16284044 215.21693874 46.83569717 224 53.25 C224.6202002 53.70197754 225.24040039 54.15395508 225.87939453 54.61962891 C271.55088077 88.32865634 299.96608993 137.72545378 310 193.25 C310.13132324 193.94448242 310.26264648 194.63896484 310.39794922 195.35449219 C315.43839278 223.13702119 312.98450477 254.51249965 305.45043945 281.5168457 C305.23347412 282.32855225 305.01650879 283.14025879 304.79296875 283.9765625 C304.5921167 284.68377441 304.39126465 285.39098633 304.18432617 286.11962891 C303.78554988 290.7285321 306.6854759 294.57601907 309.01953125 298.36328125 C309.92505737 299.84562256 309.92505737 299.84562256 310.84887695 301.35791016 C311.49687256 302.4154248 312.14486816 303.47293945 312.8125 304.5625 C335.13164312 341.46283847 362.69219793 388.84880548 352.82104492 433.99951172 C348.26427385 451.92470717 348.26427385 451.92470717 341 456.25 C339.9275 456.146875 338.855 456.04375 337.75 455.9375 C332.6597966 456.36168362 331.16882481 458.62324526 327.859375 462.3046875 C326 464.25 326 464.25 323.125 465.6875 C320.8182691 467.02720805 320.8182691 467.02720805 320.53515625 469.28125 C320.42042969 470.0753125 320.30570312 470.869375 320.1875 471.6875 C319.4404706 475.83990669 319.4404706 475.83990669 317.52734375 477.62109375 C308.21842565 482.53360289 297.35413539 483.7919626 287 483.6875 C285.9162207 483.67920166 284.83244141 483.67090332 283.71582031 483.66235352 C242.97207219 482.82175196 203.83236978 460.55888902 170.23779297 439.36694336 C169.20283691 438.7147583 168.16788086 438.06257324 167.1015625 437.390625 C166.18713379 436.80829102 165.27270508 436.22595703 164.33056641 435.62597656 C160.63946574 433.44673464 159.39784662 433.15901803 155.10546875 434.140625 C153.46548514 434.59135291 151.82621238 435.04467195 150.1875 435.5 C118.59235832 443.65477443 83.89403291 444.31817145 52 437.25 C51.07058594 437.04632813 50.14117187 436.84265625 49.18359375 436.6328125 C23.1358568 430.69788509 -2.25218175 419.8143193 -24 404.25 C-24.96035156 403.56421875 -25.92070312 402.8784375 -26.91015625 402.171875 C-43.75160006 389.83479627 -64.16300107 374.14820931 -74 355.25 C-73.73907143 351.98839287 -73.0332302 349.3496906 -72 346.25 C-73.21144263 343.71996012 -74.45273937 341.48441095 -75.9375 339.125 C-76.30423828 338.47917969 -76.67097656 337.83335937 -77.04882812 337.16796875 C-79.25939143 333.52501096 -79.25939143 333.52501096 -82.96142578 331.77441406 C-83.65606934 331.72768555 -84.35071289 331.68095703 -85.06640625 331.6328125 C-89 331.25 -89 331.25 -91.26953125 329.1328125 C-115.24681943 289.18870714 -120.97617501 238.40659353 -114.1875 193 C-114.02217773 191.88536377 -113.85685547 190.77072754 -113.68652344 189.62231445 C-112.92360224 184.81769346 -112.11494966 180.2207836 -110.4609375 175.63671875 C-107.93236603 169.03266871 -107.93236603 169.03266871 -108.76269531 162.19580078 C-111.1825269 157.59558912 -114.28440271 153.51457815 -117.4296875 149.39208984 C-119.96058016 145.93965636 -122.08242127 142.28483719 -124.1875 138.5625 C-124.57317139 137.91539062 -124.95884277 137.26828125 -125.35620117 136.6015625 C-127.59972196 132.66443887 -128.60198803 129.77461974 -128 125.25 C-127.34 124.26 -126.68 123.27 -126 122.25 C-126.4436354 118.52839192 -128.18752724 114.99475447 -129.625 111.5625 C-130.09164062 110.40363281 -130.55828125 109.24476563 -131.0390625 108.05078125 C-132.00972656 106.66439453 -132.00972656 106.66439453 -133 105.25 C-135.32438305 104.85910488 -137.65924526 104.52644675 -140 104.25 C-147.5398963 97.06231339 -150.26596514 83.81188696 -153.25 74.0625 C-153.4960498 73.26835693 -153.74209961 72.47421387 -153.99560547 71.65600586 C-160.55705073 49.52414684 -161.21232931 24.35808687 -150.8125 3.4375 C-141.76657075 -12.23442839 -127.66667758 -22.56918134 -110.375 -27.5625 C-71.79862545 -35.54381887 -33.13081187 -17.83599703 0 0 Z M-108 23.25 C-114.03252331 33.23486617 -112.49235724 44.08674642 -110.08984375 55.05859375 C-105.03972904 75.27349523 -95.9627691 94.60168414 -85 112.25 C-80.95242294 110.90080765 -80.20128289 108.91862088 -77.875 105.375 C-62.77854996 82.87595982 -43.55564131 64.60137868 -21.26660156 49.421875 C-19.81012643 48.41232056 -18.39965289 47.33696448 -17 46.25 C-17 45.59 -17 44.93 -17 44.25 C-61.67443151 17.77974682 -61.67443151 17.77974682 -108 23.25 Z M279 341.25 C277.84405867 342.93755071 276.72724571 344.65189752 275.625 346.375 C268.67458012 356.88059041 260.90409548 366.47540635 252.3125 375.6875 C251.70720459 376.33750977 251.10190918 376.98751953 250.47827148 377.65722656 C243.72415358 384.78184667 236.30099444 390.93544504 228.5 396.875 C227.79230469 397.4215625 227.08460938 397.968125 226.35546875 398.53125 C221.73256944 402.0639226 216.99044013 405.25943006 212 408.25 C227.09892036 424.92861275 261.35105757 435.20989371 283.1875 437.3125 C290.06668214 437.50066144 296.15593019 437.00264289 301.87109375 432.91015625 C306.8590016 428.01793968 307.7303676 422.00667082 308 415.25 C307.58155306 390.26273986 293.73317919 361.63944081 280 341.25 C279.67 341.25 279.34 341.25 279 341.25 Z " fill="#010202" transform="translate(158,28.75)"/>
<path d="M0 0 C0.84820312 0.19335938 1.69640625 0.38671875 2.5703125 0.5859375 C29.78331122 7.15459236 62.87982806 21.55384124 84 40 C81.77675074 41.1793149 79.54753361 42.34340918 77.3125 43.5 C76.68666016 43.83386719 76.06082031 44.16773438 75.41601562 44.51171875 C69.03887901 47.78375743 69.03887901 47.78375743 65 47 C62.48059483 45.66341416 60.14421756 44.28235662 57.75 42.75 C30.12817545 25.82921367 -2.91602573 9.92651777 -36.14453125 14.42578125 C-43.995545 16.44108084 -50.50610937 21.29879851 -54.9375 28.0625 C-61.48734855 39.16672352 -60.5885156 55.18826338 -57.87133789 67.46142578 C-57.03553055 70.68378579 -56.03981023 73.8381946 -55 77 C-54.80164551 77.63969727 -54.60329102 78.27939453 -54.39892578 78.93847656 C-45.21751295 108.49137736 -29.18121456 135.47833664 -12 161 C-11.30076416 162.04462402 -11.30076416 162.04462402 -10.58740234 163.11035156 C10.78416213 194.96390322 34.85181483 225.29504533 60.77734375 253.5625 C62.67421764 255.64272725 64.53392943 257.74556898 66.375 259.875 C73.86506088 268.47535226 81.67446117 276.74560362 89.7890625 284.7578125 C91.68245017 286.67796184 93.44776655 288.62984572 95.1875 290.6875 C102.7293124 299.48628113 111.19163573 307.79642318 120.046875 315.265625 C122.64074546 317.56898197 125.06463279 320.03207881 127.5 322.5 C131.13838332 326.18221183 134.845927 329.70718621 138.78515625 333.06640625 C141.1130624 335.09870527 143.37103566 337.19340791 145.62890625 339.30273438 C150.95681082 344.27832971 156.37813966 349.03218248 162.06640625 353.59765625 C165.54904297 356.44961575 168.92761293 359.40842125 172.3125 362.375 C178.73930664 367.98396732 185.33579564 373.31176629 192.08984375 378.51953125 C194.1630194 380.12634837 196.22272434 381.74946191 198.28125 383.375 C208.29341593 391.26287773 218.47182894 398.81543705 229 406 C230.01304199 406.69174316 231.02608398 407.38348633 232.06982422 408.09619141 C245.33935659 417.13454576 258.66823102 425.95680064 272.72851562 433.73339844 C275.08935778 435.04982676 277.42770751 436.40113775 279.765625 437.7578125 C305.199362 452.35555915 336.5295635 467.22032188 366.64453125 461.28125 C369.26468604 460.37244107 371.58481156 459.35659756 374 458 C374.66902344 457.63777344 375.33804687 457.27554687 376.02734375 456.90234375 C382.73459068 452.71917706 386.49996244 445.70426026 388.48828125 438.19921875 C390.83626438 423.51984332 388.60552408 409.96915552 384 396 C383.68699951 395.02015137 383.68699951 395.02015137 383.36767578 394.02050781 C380.41171494 384.9292233 376.39713219 376.31694986 372.3125 367.6875 C371.80605957 366.61226074 371.29961914 365.53702148 370.77783203 364.42919922 C368.30693247 359.31018869 365.75137556 354.45920172 362.53125 349.76953125 C354.78669602 338.3972892 354.78669602 338.3972892 355.21875 333.54150391 C356.62238067 328.21418243 359.08180529 323.64177203 362 319 C362.66 319 363.32 319 364 319 C365.33764648 320.86987305 365.33764648 320.86987305 366.87109375 323.51171875 C367.43989258 324.48616943 368.00869141 325.46062012 368.59472656 326.46459961 C369.2028418 327.52815674 369.81095703 328.59171387 370.4375 329.6875 C371.06495117 330.77877197 371.69240234 331.87004395 372.33886719 332.99438477 C374.24020941 336.32173366 376.12415173 339.65822037 378 343 C378.51900879 343.92232422 379.03801758 344.84464844 379.57275391 345.79492188 C390.52217322 365.43957698 399.09719009 386.01716861 404 408 C404.17740723 408.77947998 404.35481445 409.55895996 404.53759766 410.36206055 C405.44624435 415.5457604 405.26991383 420.81304451 405.3125 426.0625 C405.34150391 427.22716797 405.37050781 428.39183594 405.40039062 429.59179688 C405.46471881 438.47403514 403.99922467 446.21479678 399.8840332 454.15258789 C398.58559311 456.86600854 398.7574721 459.02903326 399 462 C399.63375716 463.67945648 400.2959292 465.34878634 401 467 C393.65603645 474.67198178 393.65603645 474.67198178 390.125 476.4375 C387.8182691 477.77720805 387.8182691 477.77720805 387.53515625 480.03125 C387.42042969 480.8253125 387.30570312 481.619375 387.1875 482.4375 C386.4404706 486.58990669 386.4404706 486.58990669 384.52734375 488.37109375 C375.21842565 493.28360289 364.35413539 494.5419626 354 494.4375 C352.9162207 494.42920166 351.83244141 494.42090332 350.71582031 494.41235352 C309.97207219 493.57175196 270.83236978 471.30888902 237.23779297 450.11694336 C236.20283691 449.4647583 235.16788086 448.81257324 234.1015625 448.140625 C233.18713379 447.55829102 232.27270508 446.97595703 231.33056641 446.37597656 C227.63946574 444.19673464 226.39784662 443.90901803 222.10546875 444.890625 C220.46548514 445.34135291 218.82621238 445.79467195 217.1875 446.25 C185.59235832 454.40477443 150.89403291 455.06817145 119 448 C118.07058594 447.79632813 117.14117187 447.59265625 116.18359375 447.3828125 C90.1358568 441.44788509 64.74781825 430.5643193 43 415 C41.55947266 413.97132813 41.55947266 413.97132813 40.08984375 412.921875 C23.24839994 400.58479627 2.83699893 384.89820931 -7 366 C-6.73907143 362.73839287 -6.0332302 360.0996906 -5 357 C-6.21144263 354.46996012 -7.45273937 352.23441095 -8.9375 349.875 C-9.30423828 349.22917969 -9.67097656 348.58335937 -10.04882812 347.91796875 C-12.25939143 344.27501096 -12.25939143 344.27501096 -15.96142578 342.52441406 C-16.65606934 342.47768555 -17.35071289 342.43095703 -18.06640625 342.3828125 C-22 342 -22 342 -24.26953125 339.8828125 C-48.24681943 299.93870714 -53.97617501 249.15659353 -47.1875 203.75 C-47.02217773 202.63536377 -46.85685547 201.52072754 -46.68652344 200.37231445 C-45.92360224 195.56769346 -45.11494966 190.9707836 -43.4609375 186.38671875 C-40.93236603 179.78266871 -40.93236603 179.78266871 -41.76269531 172.94580078 C-44.1825269 168.34558912 -47.28440271 164.26457815 -50.4296875 160.14208984 C-52.96058016 156.68965636 -55.08242127 153.03483719 -57.1875 149.3125 C-57.57317139 148.66539062 -57.95884277 148.01828125 -58.35620117 147.3515625 C-60.59972196 143.41443887 -61.60198803 140.52461974 -61 136 C-60.34 135.01 -59.68 134.02 -59 133 C-59.48617272 128.07344978 -62.7139985 123.43203908 -64.91796875 119.09375 C-66 116 -66 116 -65.23828125 113.65625 C-64 112 -64 112 -63 111 C-62.63152985 105.19815651 -63.28320259 101.44643048 -65.6875 96.0625 C-69.17880788 87.89392149 -71.73886081 79.58374516 -74 71 C-74.24878906 70.0821875 -74.49757813 69.164375 -74.75390625 68.21875 C-78.70277045 50.76642712 -76.61474749 32.88652998 -67.62109375 17.43359375 C-60.29053952 6.42893041 -47.93548869 0.09533351 -35.203125 -2.58984375 C-23.22542414 -4.12357374 -11.64341908 -3.10684749 0 0 Z " fill="#010202" transform="translate(91,18)"/>
<path d="M0 0 C2.30303649 1.43221199 3.43902336 2.78462826 5.00512695 4.98999023 C5.55177002 5.74820068 6.09841309 6.50641113 6.66162109 7.28759766 C7.24161865 8.10719971 7.82161621 8.92680176 8.41918945 9.77124023 C9.67373343 11.50833919 10.93029623 13.24398166 12.1887207 14.97827148 C12.82890137 15.86208496 13.46908203 16.74589844 14.12866211 17.65649414 C22.8742682 29.59448053 32.23720163 41.08446692 41.6159668 52.52709961 C42.90423593 54.10032947 44.1874167 55.67772271 45.4699707 57.25561523 C50.76100914 63.75898752 56.14978951 70.17514107 61.58520508 76.55786133 C62.57168989 77.7163537 63.5573451 78.87555293 64.54223633 80.03540039 C70.52195332 87.07522808 76.57435421 94.0216937 82.81762695 100.82983398 C84.73552153 102.93278856 86.6179499 105.0579318 88.48168945 107.20874023 C92.76566638 112.13481206 97.2006599 116.9223533 101.62231445 121.72436523 C103.85267523 124.15080168 106.07195387 126.58736317 108.29418945 129.02124023 C118.06444965 139.68067012 127.87290255 150.29146486 138.21337891 160.40356445 C141.01481334 163.16045086 143.67861861 165.96882619 146.2355957 168.95483398 C150.5745701 173.973537 155.26147155 178.63857885 159.95947266 183.31689453 C161.47910614 184.83116603 162.99331463 186.35071454 164.50708008 187.87084961 C169.25633969 192.62302044 174.06287159 197.24340321 179.16943359 201.61474609 C183.33453715 205.29494242 187.15425496 209.34439296 191.04418945 213.31030273 C194.96878766 217.28089232 198.98464904 221.05670885 203.23364258 224.67944336 C205.08498912 226.30711049 206.81902872 228.01112052 208.54418945 229.77124023 C211.46549734 232.73839824 214.52410619 235.47182995 217.67700195 238.18920898 C220.68141612 240.83170527 223.61149934 243.54967365 226.54418945 246.27124023 C235.14105284 254.23319822 244.02220578 261.79803043 253.04418945 269.27124023 C252.45823886 273.96785961 250.42408006 277.66565403 248.10668945 281.70874023 C247.7113501 282.40451172 247.31601074 283.1002832 246.90869141 283.81713867 C241.89809376 292.46726027 236.35241482 301.38110556 229.04418945 308.27124023 C215.69451481 296.90285736 215.69451481 296.90285736 209.85668945 291.58374023 C206.46739016 288.50053529 202.99029461 285.57934054 199.41918945 282.70874023 C195.32272492 279.39584697 191.58171635 275.91976187 187.91137695 272.14624023 C185.54975584 269.77473786 183.03825699 267.62282858 180.49731445 265.44702148 C178.48862521 263.66542927 176.53476362 261.85282614 174.59106445 260.00170898 C154.8144707 241.07759235 154.8144707 241.07759235 129.0871582 234.13061523 C99.36599123 233.64129402 77.47808172 221.59821788 56.04418945 201.27124023 C55.14829102 200.42819336 54.25239258 199.58514648 53.3293457 198.71655273 C34.51503154 180.50915193 17.42447247 155.26899988 16.77075195 128.28686523 C16.70748363 124.40377192 16.66919253 120.52200471 16.65356445 116.63842773 C16.29586332 97.04435436 8.30548414 84.76217482 -3.7331543 70.20092773 C-7.5179787 65.61346143 -11.07617195 60.87504378 -14.60668945 56.09008789 C-16.8964741 53.00306371 -19.21161956 49.93510515 -21.52270508 46.86401367 C-23.48574924 44.25206502 -25.44205519 41.63518618 -27.3972168 39.01733398 C-29.48709172 36.2207114 -31.59142962 33.4384764 -33.7331543 30.68139648 C-34.46663086 29.72104492 -35.20010742 28.76069336 -35.95581055 27.77124023 C-36.57456055 26.97717773 -37.19331055 26.18311523 -37.83081055 25.36499023 C-38.95581055 23.27124023 -38.95581055 23.27124023 -39.01831055 21.25170898 C-37.39864354 18.23269733 -34.8040015 16.81494803 -31.95581055 15.08374023 C-31.03650757 14.50934204 -31.03650757 14.50934204 -30.09863281 13.92333984 C-22.60765929 9.32079124 -14.83750758 5.16303254 -6.95581055 1.27124023 C-6.04959961 0.81620117 -5.14338867 0.36116211 -4.2097168 -0.10766602 C-1.95581055 -0.72875977 -1.95581055 -0.72875977 0 0 Z " fill="#90D9F8" transform="translate(180.955810546875,72.728759765625)"/>
<path d="M0 0 C1.5039033 1.90473703 2.88269679 3.81198517 4.25 5.8125 C5.15228792 7.10251335 6.05601347 8.39152198 6.9609375 9.6796875 C7.44916992 10.37674805 7.93740234 11.07380859 8.44042969 11.79199219 C15.38872994 21.62925385 22.55260008 31.32143945 30.125 40.6875 C34.32368676 45.88279503 38.45795403 51.11905112 42.5 56.4375 C43.23887451 57.39499146 43.23887451 57.39499146 43.99267578 58.37182617 C52.26885752 69.34527128 54.3112683 79.08492652 53.9375 92.6875 C53.55780511 125.19332742 69.8661253 153.18612915 92 176 C92.86238281 176.86238281 93.72476563 177.72476563 94.61328125 178.61328125 C96.00280184 180.00280184 97.37730501 181.40831638 98.7109375 182.8515625 C114.39038407 199.56158302 140.3731257 215.7034106 163.67602539 217.16821289 C166.55488441 217.23994069 169.43299531 217.27630378 172.3125 217.3125 C190.4293894 217.87524332 200.70584576 225.3480879 213.12890625 238.12109375 C215.51067166 240.5128039 218.04324133 242.6873715 220.6015625 244.88671875 C223.79146953 247.69736974 226.89255891 250.59879414 230 253.5 C234.92623872 258.09103273 239.88468556 262.61938063 245 267 C246.06917493 267.92298655 247.13816796 268.84618382 248.20703125 269.76953125 C255.38399378 275.95741801 262.62925068 282.04323116 270 288 C269.14063524 292.7239712 266.19456488 295.02853665 262.75 298.125 C262.12029297 298.69831055 261.49058594 299.27162109 260.84179688 299.86230469 C252.56828256 307.30349849 243.82993899 313.93898063 234.5 320 C233.92443359 320.37415039 233.34886719 320.74830078 232.75585938 321.13378906 C226.49386138 325.1036456 226.49386138 325.1036456 223 326 C220.25537109 324.796875 220.25537109 324.796875 217.2734375 322.75 C216.73258011 322.38560318 216.19172272 322.02120636 215.63447571 321.64576721 C213.8682898 320.4484249 212.12190077 319.2252702 210.375 318 C209.15681537 317.16410225 207.93781425 316.32939321 206.71801758 315.49584961 C191.73696589 305.2100119 177.16404153 294.3836347 163 283 C162.3596582 282.4858252 161.71931641 281.97165039 161.05957031 281.44189453 C152.47600887 274.53646291 143.98438397 267.53112798 135.61083984 260.37255859 C133.96105316 258.96681432 132.30345255 257.57072891 130.64453125 256.17578125 C123.45356073 250.10367837 116.50210116 243.82396076 109.68041992 237.33886719 C106.66097744 234.47181944 103.62288053 231.66020765 100.45288086 228.95996094 C95.0539315 224.24783238 90.02330922 219.16775927 84.96484375 214.09765625 C83.91702054 213.05050864 82.8690491 212.00350934 81.82093811 210.95664978 C79.63673012 208.77390674 77.45431668 206.58938975 75.27319336 204.40356445 C72.49746119 201.62213576 69.71726218 198.84522224 66.93569088 196.06963444 C64.77440797 193.91198979 62.61554286 191.75193853 60.45736885 189.59118462 C59.43398679 188.5671423 58.40988039 187.54382326 57.3849926 186.52128792 C52.24327503 181.38878876 47.17835341 176.23088757 42.46153259 170.699646 C39.94546121 167.77365538 37.27259006 164.99397788 34.625 162.1875 C29.90252568 157.14568357 25.4334785 151.97635433 21.11328125 146.58203125 C18.96380974 143.95578232 16.72539912 141.44366547 14.4375 138.9375 C10.0632693 134.12509075 6.00922336 129.11800125 2 124 C1.21367187 123.00871094 0.42734375 122.01742187 -0.3828125 120.99609375 C-12.25548712 106.01164765 -24.07239257 90.94780376 -34.6484375 75.01074219 C-36.13323067 72.8017905 -37.65940366 70.62450277 -39.1875 68.4453125 C-40.23016964 66.92256128 -41.27186113 65.39913976 -42.3125 63.875 C-42.81177002 63.17600586 -43.31104004 62.47701172 -43.82543945 61.75683594 C-47.11090429 56.85507209 -47.11090429 56.85507209 -46.609375 52.98828125 C-44.59791552 49.25341109 -42.38308106 45.77630936 -39.9375 42.3125 C-39.20104248 41.25748291 -39.20104248 41.25748291 -38.44970703 40.18115234 C-10.10543218 0 -10.10543218 0 0 0 Z " fill="#74CDF7" transform="translate(130,103)"/>
<path d="M0 0 C17.52424131 -0.27901425 34.66984334 -0.12270477 51.85546875 3.609375 C55.5678784 4.28558805 59.26588321 4.67749798 63 4 C65.12355567 2.17728073 65.12355567 2.17728073 66 0 C70.77676459 0.36051054 75.26874745 1.16485433 79.875 2.5 C80.80054688 2.7578125 81.72609375 3.015625 82.6796875 3.28125 C85.50837921 5.37657719 85.35908854 6.06179463 85.859375 9.41796875 C86.21773851 11.82985274 86.21773851 11.82985274 87 14 C89.63821308 15.81337031 91.45267123 16.75228491 94.375 17.8125 C95.92332604 18.45780277 97.46745542 19.11324341 99.0078125 19.77734375 C100.22839355 20.30110596 100.22839355 20.30110596 101.47363281 20.83544922 C114.28721552 26.74198087 126.17150434 35.01993544 137 44 C137.82975342 44.67168213 137.82975342 44.67168213 138.67626953 45.35693359 C176.6536694 76.12600693 201.42817866 120.81112378 209 169 C209.20496094 170.12535156 209.40992188 171.25070313 209.62109375 172.41015625 C212.35677968 189.14500743 212.38743159 207.36529132 209 224 C206.66317522 222.00396217 204.32991422 220.00408331 202 218 C201.40960938 217.49339844 200.81921875 216.98679687 200.2109375 216.46484375 C194.30176089 211.34774826 188.56743734 206.0427059 182.84667969 200.71728516 C181.61211609 199.56922589 180.37577525 198.42307492 179.13769531 197.27880859 C168.55968413 187.49806703 158.32156684 177.40845083 148.19799805 167.16113281 C147.69952362 166.6583934 147.20104919 166.15565399 146.68746948 165.63768005 C145.32778831 164.26607336 143.97104047 162.8915606 142.61450195 161.5168457 C140.73156779 159.70424244 138.87746249 158.04133708 136.86206055 156.39331055 C134.60319619 154.50440436 132.81038628 152.79249961 130.96875 150.53125 C127.70032668 146.70252554 124.22335949 143.14060908 120.65625 139.59375 C120.07955566 139.02027832 119.50286133 138.44680664 118.90869141 137.85595703 C117.10765117 136.06875195 115.30426788 134.28394628 113.5 132.5 C99.33744778 118.49696164 99.33744778 118.49696164 94.3984375 112.6171875 C92.84539713 110.82121344 91.19505918 109.16182755 89.5 107.5 C86.5545927 104.60000647 83.84536291 101.56373569 81.1484375 98.43359375 C78.32379341 95.23404235 75.41233634 92.11962592 72.5 89 C67.90908078 84.07383601 63.37828307 79.1172338 59 74 C58.11208701 72.96605322 57.22405495 71.93220867 56.3359375 70.8984375 C54.27747856 68.5008026 52.22191424 66.10072087 50.16796875 63.69921875 C48.13428605 61.32213047 46.0954978 58.94963379 44.05078125 56.58203125 C36.82723821 48.20851949 29.76089499 39.71372497 22.76123047 31.15234375 C21.01244112 29.01520389 19.25843212 26.88243133 17.50390625 24.75 C0 3.41914654 0 3.41914654 0 0 Z " fill="#6BBEF6" transform="translate(244,57)"/>
<path d="M0 0 C0.84820312 0.19335938 1.69640625 0.38671875 2.5703125 0.5859375 C29.78331122 7.15459236 62.87982806 21.55384124 84 40 C81.77675074 41.1793149 79.54753361 42.34340918 77.3125 43.5 C76.68666016 43.83386719 76.06082031 44.16773438 75.41601562 44.51171875 C69.03887901 47.78375743 69.03887901 47.78375743 65 47 C62.48059483 45.66341416 60.14421756 44.28235662 57.75 42.75 C30.12817545 25.82921367 -2.91602573 9.92651777 -36.14453125 14.42578125 C-43.995545 16.44108084 -50.50610937 21.29879851 -54.9375 28.0625 C-61.48734855 39.16672352 -60.5885156 55.18826338 -57.87133789 67.46142578 C-57.03553055 70.68378579 -56.03981023 73.8381946 -55 77 C-54.80164551 77.63969727 -54.60329102 78.27939453 -54.39892578 78.93847656 C-45.21751295 108.49137736 -29.18121456 135.47833664 -12 161 C-11.30076416 162.04462402 -11.30076416 162.04462402 -10.58740234 163.11035156 C10.78416213 194.96390322 34.85181483 225.29504533 60.77734375 253.5625 C62.67421764 255.64272725 64.53392943 257.74556898 66.375 259.875 C73.86506088 268.47535226 81.67446117 276.74560362 89.7890625 284.7578125 C91.68245017 286.67796184 93.44776655 288.62984572 95.1875 290.6875 C102.7293124 299.48628113 111.19163573 307.79642318 120.046875 315.265625 C122.64074546 317.56898197 125.06463279 320.03207881 127.5 322.5 C131.13838332 326.18221183 134.845927 329.70718621 138.78515625 333.06640625 C141.1130624 335.09870527 143.37103566 337.19340791 145.62890625 339.30273438 C150.95681082 344.27832971 156.37813966 349.03218248 162.06640625 353.59765625 C165.54904297 356.44961575 168.92761293 359.40842125 172.3125 362.375 C178.73930664 367.98396732 185.33579564 373.31176629 192.08984375 378.51953125 C194.1630194 380.12634837 196.22272434 381.74946191 198.28125 383.375 C208.29341593 391.26287773 218.47182894 398.81543705 229 406 C230.01304199 406.69174316 231.02608398 407.38348633 232.06982422 408.09619141 C245.33935659 417.13454576 258.66823102 425.95680064 272.72851562 433.73339844 C275.08935778 435.04982676 277.42770751 436.40113775 279.765625 437.7578125 C305.199362 452.35555915 336.5295635 467.22032188 366.64453125 461.28125 C369.26468604 460.37244107 371.58481156 459.35659756 374 458 C374.66902344 457.63777344 375.33804687 457.27554687 376.02734375 456.90234375 C382.73459068 452.71917706 386.49996244 445.70426026 388.48828125 438.19921875 C390.83626438 423.51984332 388.60552408 409.96915552 384 396 C383.68699951 395.02015137 383.68699951 395.02015137 383.36767578 394.02050781 C380.41171494 384.9292233 376.39713219 376.31694986 372.3125 367.6875 C371.80605957 366.61226074 371.29961914 365.53702148 370.77783203 364.42919922 C368.30693247 359.31018869 365.75137556 354.45920172 362.53125 349.76953125 C354.78669602 338.3972892 354.78669602 338.3972892 355.21875 333.54150391 C356.62238067 328.21418243 359.08180529 323.64177203 362 319 C362.66 319 363.32 319 364 319 C365.33764648 320.86987305 365.33764648 320.86987305 366.87109375 323.51171875 C367.43989258 324.48616943 368.00869141 325.46062012 368.59472656 326.46459961 C369.2028418 327.52815674 369.81095703 328.59171387 370.4375 329.6875 C371.06495117 330.77877197 371.69240234 331.87004395 372.33886719 332.99438477 C374.24020941 336.32173366 376.12415173 339.65822037 378 343 C378.51900879 343.92232422 379.03801758 344.84464844 379.57275391 345.79492188 C390.52217322 365.43957698 399.09719009 386.01716861 404 408 C404.17740723 408.77947998 404.35481445 409.55895996 404.53759766 410.36206055 C405.44624435 415.5457604 405.26991383 420.81304451 405.3125 426.0625 C405.34150391 427.22716797 405.37050781 428.39183594 405.40039062 429.59179688 C405.46471881 438.47403514 403.99922467 446.21479678 399.8840332 454.15258789 C398.58559311 456.86600854 398.7574721 459.02903326 399 462 C399.63375716 463.67945648 400.2959292 465.34878634 401 467 C396.3536679 471.97217876 392.10819022 475.94590489 386 479 C385.34 478.319375 384.68 477.63875 384 476.9375 C380.68515996 474.79666581 379.22844969 474.75118448 375.41796875 475.4375 C373.6240907 475.85481573 371.83574705 476.29607492 370.05078125 476.75 C341.93193228 483.80515149 314.13647327 473.18937098 289 461 C287.39595893 460.24322332 285.79179224 459.48671284 284.1875 458.73046875 C264.88924884 449.48880675 246.57945369 438.17313604 229 426 C228.26571777 425.49710449 227.53143555 424.99420898 226.77490234 424.47607422 C208.45397717 411.92374949 190.8247573 398.51829003 173.69140625 384.39160156 C171.26322399 382.39381881 168.81713585 380.41818576 166.375 378.4375 C156.5496303 370.37981301 146.97895249 362.06625234 137.65234375 353.4375 C135.52509466 351.48256122 133.37727748 349.57117955 131.1875 347.6875 C121.36445171 339.15104639 111.97239464 330.12167894 102.87890625 320.81640625 C100.70864713 318.63720802 98.43238878 316.6265608 96.09765625 314.625 C92.06990281 311.1360542 88.46621537 307.3679507 84.875 303.4375 C79.85767483 298.00925133 74.75794698 292.69556335 69.5 287.5 C65.47154366 283.51111916 61.55818379 279.50723881 57.89453125 275.17578125 C55.76837859 272.73399356 53.56253739 270.37930845 51.34594727 268.01977539 C46.13284119 262.46943335 41.12892173 256.84624473 36.3671875 250.8984375 C33.53012937 247.42467986 30.58120986 244.05976265 27.625 240.6875 C21.95953106 234.200234 16.59224525 227.52783041 11.32958984 220.71191406 C10.01926747 219.02480784 8.6944277 217.35039703 7.36328125 215.6796875 C-8.35207716 195.93674595 -22.67408984 175.3395964 -35.9375 153.875 C-36.48253174 152.99763184 -37.02756348 152.12026367 -37.58911133 151.21630859 C-39.82167953 147.60732948 -42.02787333 144.00469375 -44.05078125 140.2734375 C-46.20624763 136.39823138 -46.20624763 136.39823138 -49 133 C-51.15745255 132.61760626 -51.15745255 132.61760626 -53.4375 132.8125 C-55.703125 132.8828125 -55.703125 132.8828125 -58 132 C-59.94486786 129.58692321 -61.31342445 126.95648415 -62.6875 124.1875 C-63.23265259 123.09949097 -63.23265259 123.09949097 -63.78881836 121.98950195 C-66.20541715 116.68875163 -66.20541715 116.68875163 -65.26953125 113.55078125 C-64 112 -64 112 -63 111 C-62.63152985 105.19815651 -63.28320259 101.44643048 -65.6875 96.0625 C-69.17880788 87.89392149 -71.73886081 79.58374516 -74 71 C-74.24878906 70.0821875 -74.49757813 69.164375 -74.75390625 68.21875 C-78.70277045 50.76642712 -76.61474749 32.88652998 -67.62109375 17.43359375 C-60.29053952 6.42893041 -47.93548869 0.09533351 -35.203125 -2.58984375 C-23.22542414 -4.12357374 -11.64341908 -3.10684749 0 0 Z " fill="#EBE9EB" transform="translate(91,18)"/>
<path d="M0 0 C3.73178439 3.54024148 6.76691238 7.26060956 9.6875 11.5 C18.10578381 23.48113705 27.23891895 34.85378604 36.51171875 46.1796875 C37.81409379 47.77261865 39.11066032 49.3702952 40.40625 50.96875 C48.66481246 61.14234144 57.19343964 71.08221385 66 80.78515625 C67.79603529 82.77412502 69.55953303 84.78563194 71.3125 86.8125 C75.86080591 92.02539856 80.56941195 97.09012157 85.28271484 102.15332031 C86.43077411 103.38788391 87.57692508 104.62422475 88.72119141 105.86230469 C97.4558023 115.30891067 106.41390024 124.51786921 115.5 133.625 C116.01260376 134.14019196 116.52520752 134.65538391 117.05334473 135.18618774 C122.33453236 140.48845014 127.65425726 145.69064967 133.34179688 150.56005859 C135.50406422 152.43771654 137.50657991 154.44524391 139.5 156.5 C142.83120807 159.87100065 146.25111628 163.0451403 149.84765625 166.12890625 C152.38052162 168.33079829 154.84332522 170.60195826 157.3125 172.875 C161.85524685 177.02245258 166.54119962 180.93232695 171.328125 184.79296875 C173.8985905 186.91623338 176.35919363 189.11811849 178.8125 191.375 C183.18622021 195.35611856 187.74328778 199.0166632 192.41430664 202.63671875 C196.25196055 205.61375814 200.02751285 208.65271047 203.77294922 211.74487305 C211.56983189 218.17359441 219.60693277 224.17486835 227.84375 230.02734375 C231.95106881 232.94575294 235.98396603 235.9575705 240 239 C236.1456572 241.0644661 232.34047353 241.83735471 228.0625 242.5625 C227.37865234 242.68818359 226.69480469 242.81386719 225.99023438 242.94335938 C214.55237273 244.93481933 202.83542429 245.32235046 191.25 245.625 C190.00089844 245.69589844 188.75179687 245.76679688 187.46484375 245.83984375 C178.45957007 246.02051978 178.45957007 246.02051978 174.25024414 243.07739258 C171.99789564 240.81859366 170.00979818 238.47349655 168 236 C166.67169327 234.78364279 165.32113533 233.59052944 163.9375 232.4375 C160.52851299 229.51454678 157.3684106 226.4172824 154.25 223.1875 C152.43936205 221.42715755 150.60898658 219.81183983 148.68579102 218.18139648 C142.43165074 212.72101063 136.63950729 206.78335946 130.77734375 200.91015625 C129.50531833 199.63880593 128.23314461 198.36760396 126.96083069 197.09654236 C124.30583772 194.44301665 121.65264357 191.78770906 119.00073242 189.13110352 C115.61966022 185.74433465 112.23411742 182.36207607 108.84720516 178.98114872 C106.22269432 176.36026982 103.60059256 173.73699108 100.97918892 171.11300468 C99.73252079 169.86567456 98.48512352 168.61907269 97.23695183 167.37324715 C85.47827207 155.63182861 85.47827207 155.63182861 80.30604553 149.52622986 C78.48468812 147.39781243 76.50962751 145.44963863 74.5 143.5 C71.21896632 140.25743741 68.14540004 136.92952978 65.14453125 133.4296875 C62.16551179 130.0545507 59.08038068 126.78250434 56 123.5 C51.23459016 118.41297912 46.52413793 113.30416171 42 108 C41.12522728 106.9789719 40.25020301 105.95815929 39.375 104.9375 C37.85921311 103.16954381 36.34392973 101.40117032 34.83032227 99.63134766 C31.56418087 95.81435788 28.27829479 92.01541076 24.97900391 88.22705078 C20.02235949 82.53264623 15.07535386 76.84066071 10.41015625 70.90234375 C8.52699656 68.6346166 6.62894961 66.5888936 4.55859375 64.50390625 C-2.19098713 57.44678398 -6.17980815 51.90140039 -6 41.875 C-5.81926087 38.22588716 -5.44296907 34.62578383 -5 31 C-4.89461914 30.03030273 -4.78923828 29.06060547 -4.68066406 28.06152344 C-3.63207618 18.58067102 -2.16288789 9.29101406 0 0 Z " fill="#74CDF7" transform="translate(62,210)"/>
<path d="M0 0 C2.53462563 1.92245549 4.05341427 4.33629916 5.75 7 C6.76736422 8.47375501 7.78831511 9.94503933 8.8125 11.4140625 C9.59173828 12.55343262 9.59173828 12.55343262 10.38671875 13.71582031 C12.99819521 17.41330423 15.8667824 20.88793872 18.75 24.375 C19.84669126 25.71196314 20.94305606 27.04919415 22.0390625 28.38671875 C22.54985352 29.00853027 23.06064453 29.6303418 23.58691406 30.27099609 C25.45620201 32.55819327 27.29162601 34.87146225 29.125 37.1875 C32.61756591 41.56975113 36.22862071 45.84387506 39.86157227 50.10961914 C42.8107389 53.57691708 45.70273126 57.08313094 48.5625 60.625 C52.43579272 65.38520053 56.50759992 69.92804784 60.66015625 74.4453125 C63.2279197 77.24884722 65.72896875 80.10344875 68.22265625 82.97265625 C71.0579696 86.20678291 73.94926764 89.39022765 76.83203125 92.58203125 C78.64047557 94.5990169 80.4198734 96.63491596 82.1875 98.6875 C86.19012517 103.28310667 90.36806332 107.71398558 94.53613281 112.15893555 C97.38949057 115.20199126 100.23715377 118.24857562 103.046875 121.33203125 C109.07843343 127.94709282 115.26743683 134.35803809 121.66186523 140.625 C124.63508789 143.55576538 127.48924981 146.5218195 130.203125 149.6953125 C134.66576209 154.86458061 139.50703829 159.65675432 144.3425293 164.47290039 C145.93458966 166.05959946 147.5212299 167.65157742 149.10742188 169.24414062 C153.97055679 174.11012409 158.87984752 178.85680061 164.11157227 183.32983398 C168.50616814 187.21650889 172.53578893 191.50001095 176.64453125 195.68359375 C180.62784463 199.71059979 184.69293044 203.54630815 188.98632812 207.24023438 C193.33020174 211.03638387 197.46452444 215.0646298 201.64453125 219.0390625 C208.56570375 225.59329898 215.75350675 231.81028702 223 238 C221.36559954 247.9698428 218.13564949 257.42196248 215 267 C210.50153053 267 210.50153053 267 207.828125 264.40234375 C207.25046387 263.85175293 206.67280273 263.30116211 206.07763672 262.73388672 C205.4745166 262.1410791 204.87139648 261.54827148 204.25 260.9375 C202.98773453 259.72967884 201.72471997 258.52264003 200.4609375 257.31640625 C199.85862305 256.73648926 199.25630859 256.15657227 198.63574219 255.55908203 C196.76251014 253.77364026 194.83825161 252.06074558 192.875 250.375 C187.99971424 246.16358294 183.28114846 241.78092452 178.54248047 237.41748047 C177.08500017 236.0781119 175.6227229 234.74396875 174.16015625 233.41015625 C171.09765658 230.61651801 168.04551614 227.81212638 165 225 C164.1023291 224.17218018 164.1023291 224.17218018 163.18652344 223.32763672 C152.78488763 213.70917666 142.70733812 203.79700677 132.75463867 193.71777344 C132.27727768 193.23614746 131.79991669 192.75452148 131.30809021 192.25830078 C130.00643247 190.9447078 128.707703 189.62821498 127.40917969 188.31152344 C125.03211864 185.96023242 125.03211864 185.96023242 122.37988281 183.91113281 C120.2811715 182.22579099 118.69625937 180.63212081 117 178.5625 C113.78480935 174.80448495 110.37990407 171.29669562 106.875 167.8125 C106.32054199 167.26126465 105.76608398 166.7100293 105.19482422 166.14208984 C103.46507689 164.42616864 101.73298354 162.71265244 100 161 C86.6896006 147.84575612 86.6896006 147.84575612 81.3515625 141.57421875 C79.66530972 139.61017289 77.86162723 137.79743319 76 136 C72.87589016 132.91754495 69.97298912 129.72490228 67.11328125 126.3984375 C64.30263026 123.20853047 61.40120586 120.10744109 58.5 117 C53.90908909 112.073892 49.37749575 107.11787558 45 102 C44.12377679 100.97779697 43.24746655 99.95566854 42.37109375 98.93359375 C40.85672185 97.16699451 39.3428857 95.39994871 37.83056641 93.6315918 C34.56397 89.81415558 31.27763816 86.01475326 27.97802734 82.22583008 C22.1937031 75.58089471 16.54040925 68.85071088 11 62 C9.56317476 60.24944595 8.12565827 58.49945907 6.6875 56.75 C5.12336003 54.83467143 3.56097301 52.91791048 2 51 C1.56349121 50.46455566 1.12698242 49.92911133 0.67724609 49.37744141 C-7.58747146 39.21781507 -15.49236503 28.805715 -23.29199219 18.28564453 C-24.44221858 16.74641933 -25.6046326 15.21623545 -26.77832031 13.69482422 C-27.32842773 12.97955566 -27.87853516 12.26428711 -28.4453125 11.52734375 C-28.93789551 10.8943335 -29.43047852 10.26132324 -29.93798828 9.60913086 C-31 8 -31 8 -31 6 C-7.37774459 -1.52115087 -7.37774459 -1.52115087 0 0 Z " fill="#74CDF7" transform="translate(227,60)"/>
<path d="M0 0 C3.74223882 3.64715472 7.18692071 7.4509892 10.5625 11.4375 C11.07989746 12.04440674 11.59729492 12.65131348 12.13037109 13.27661133 C13.75543759 15.18283545 15.37793154 17.09122447 17 19 C23.48366524 26.62402873 30.00849774 34.18158801 36.7734375 41.55859375 C38.69133207 43.66154833 40.57376045 45.78669156 42.4375 47.9375 C46.72284463 52.86514453 51.15939264 57.65403642 55.58251953 62.45751953 C56.9218881 63.91499983 58.25603125 65.3772771 59.58984375 66.83984375 C62.38348111 69.90234245 65.18820387 72.9541819 68 76 C68.5465625 76.59312988 69.093125 77.18625977 69.65625 77.79736328 C81.2671767 90.36398847 93.34342181 102.44734887 105.4831543 114.49902344 C109.69965329 118.68893668 113.89590728 122.89879673 118.08772278 127.1133728 C120.78407398 129.82321063 123.48316964 132.53030822 126.18237305 135.23730469 C127.59799159 136.65795294 129.01271144 138.0794973 130.42651367 139.50195312 C132.48635431 141.57403614 134.54950788 143.64277229 136.61328125 145.7109375 C137.23439285 146.33721039 137.85550446 146.96348328 138.49543762 147.60873413 C142.82901207 151.94285059 147.34317642 156.01598394 152 160 C148.58611581 161.1379614 147.66741165 160.8455918 144.30859375 159.84765625 C143.37273437 159.56994385 142.436875 159.29223145 141.47265625 159.00610352 C140.47105469 158.69471436 139.46945313 158.3833252 138.4375 158.0625 C137.40625 157.744021 136.375 157.42554199 135.3125 157.09741211 C125.85730068 154.09445132 116.88573552 150.39638983 108 146 C107.33000977 145.6685498 106.66001953 145.33709961 105.96972656 144.99560547 C83.77645688 133.86634946 64.36983733 118.38344041 47.5625 100.1875 C47.0579126 99.64150146 46.5533252 99.09550293 46.03344727 98.53295898 C43.44347064 95.69358686 41.08401614 92.78275277 38.8125 89.6875 C36.39377622 86.77621563 36.39377622 86.77621563 33.890625 86.9375 C33.12234375 87.02 32.3540625 87.1025 31.5625 87.1875 C29.24609375 87.3984375 29.24609375 87.3984375 27 87 C24.02956898 84.03529236 22.05096259 80.63966159 20 77 C19.42507812 76.10410156 18.85015625 75.20820313 18.2578125 74.28515625 C17.84273437 73.53105469 17.42765625 72.77695312 17 72 C17.75 70.125 17.75 70.125 19 68 C20.48423922 62.08497771 19.35148297 58.62518374 16.5625 53.4375 C8.57400472 37.50133953 0 18.14598721 0 0 Z " fill="#5EA5EB" transform="translate(60,289)"/>
<path d="M0 0 C1.5039033 1.90473703 2.88269679 3.81198517 4.25 5.8125 C5.15228792 7.10251335 6.05601347 8.39152198 6.9609375 9.6796875 C7.44916992 10.37674805 7.93740234 11.07380859 8.44042969 11.79199219 C17.20084937 24.19481554 26.40021256 36.23762309 36 48 C35.44058716 48.64050293 35.44058716 48.64050293 34.86987305 49.29394531 C20.10174554 66.34109045 9.15915245 85.45500586 0 106 C-0.68255859 107.51400391 -0.68255859 107.51400391 -1.37890625 109.05859375 C-2.26347413 111.03423142 -3.13426994 113.01603529 -4 115 C-8.80785143 110.5170034 -12.6685409 105.42267691 -16.625 100.1875 C-17.33358154 99.25260742 -18.04216309 98.31771484 -18.7722168 97.35449219 C-24.27918184 90.04516822 -29.58847046 82.63561584 -34.6484375 75.01074219 C-36.13323067 72.8017905 -37.65940366 70.62450277 -39.1875 68.4453125 C-40.23016964 66.92256128 -41.27186113 65.39913976 -42.3125 63.875 C-42.81177002 63.17600586 -43.31104004 62.47701172 -43.82543945 61.75683594 C-47.11090429 56.85507209 -47.11090429 56.85507209 -46.609375 52.98828125 C-44.59791552 49.25341109 -42.38308106 45.77630936 -39.9375 42.3125 C-39.20104248 41.25748291 -39.20104248 41.25748291 -38.44970703 40.18115234 C-10.10543218 0 -10.10543218 0 0 0 Z " fill="#6BBEF6" transform="translate(130,103)"/>
<path d="M0 0 C3.73178439 3.54024148 6.76691238 7.26060956 9.6875 11.5 C18.09916773 23.47172086 27.22437326 34.8361881 36.48974609 46.15332031 C37.85754484 47.82581137 39.2209206 49.50175274 40.58203125 51.1796875 C44.94880551 56.55074544 49.39453071 61.83180456 54 67 C53.67 67.66 53.34 68.32 53 69 C52.12921344 82.7986178 53.89317222 96.36211615 55.63623047 110.02734375 C56.16453572 114.34455502 56.59419084 118.66975623 57 123 C48.27904478 115.94901493 41.34473056 107.47583205 34.31640625 98.78515625 C31.95399582 95.94468638 29.50170972 93.21824101 27 90.5 C22.94584213 86.08977588 19.11726004 81.55125137 15.35546875 76.890625 C13.20456447 74.25104097 11.0193614 71.6484787 8.80761719 69.06005859 C7.85441571 67.93889353 6.90838447 66.81159175 5.96972656 65.67822266 C3.9897562 63.29027976 2.02477232 61.0229262 -0.25390625 58.9140625 C-4.56195317 54.64953121 -5.40541175 50.87828318 -5.62084961 44.99902344 C-5.64423515 29.86170139 -3.42629896 14.71818858 0 0 Z " fill="#6BBDF5" transform="translate(62,210)"/>
<path d="M0 0 C3.46027295 1.06469937 5.23006355 3.73291336 7.1328125 6.65625 C8.09396276 8.90861586 9.00974516 11.1808 9.8828125 13.46875 C13.6633977 22.17768028 20.94343931 25.20433552 29.34277344 28.71166992 C31.40459533 29.79966623 32.68133561 30.82877825 34.1328125 32.65625 C34.83814893 38.12260731 34.83814893 38.12260731 34.1328125 40.65625 C30.62862875 44.89677255 26.81250967 47.16484162 21.9453125 49.46875 C21.00268555 49.93571289 21.00268555 49.93571289 20.04101562 50.41210938 C15.42942995 52.65625 15.42942995 52.65625 13.1328125 52.65625 C12.74029297 53.93242188 12.74029297 53.93242188 12.33984375 55.234375 C11.08030447 58.80510771 9.56566003 62.04713324 7.8203125 65.40625 C7.24667969 66.53546875 6.67304688 67.6646875 6.08203125 68.828125 C3.92555001 71.95696752 2.76745951 72.75481131 -0.8671875 73.65625 C-3.8671875 73.65625 -3.8671875 73.65625 -6.8671875 72.65625 C-10.74136605 68.59558149 -12.60255636 65.12326867 -14.6171875 59.84375 C-18.15044021 51.69489007 -24.29279253 48.99661531 -32.1015625 45.5234375 C-35.26292651 44.07308978 -37.2812753 42.89100742 -38.8671875 39.65625 C-38.8671875 34.11778846 -38.8671875 34.11778846 -37.8671875 31.65625 C-34.74568238 28.62145335 -31.52974879 27.01042533 -27.54980469 25.32275391 C-17.51233652 20.88729867 -13.84720911 14.234012 -9.79589844 4.31689453 C-7.56780016 0.33279241 -4.14961628 0.3254601 0 0 Z " fill="#000000" transform="translate(438.8671875,-0.65625)"/>
<path d="M0 0 C2.30303649 1.43221199 3.43902336 2.78462826 5.00512695 4.98999023 C5.55273682 5.74932861 6.10034668 6.50866699 6.66455078 7.29101562 C7.24358154 8.10948975 7.8226123 8.92796387 8.41918945 9.77124023 C9.65787782 11.49027342 10.89882863 13.20767824 12.1418457 14.92358398 C12.78009277 15.8051416 13.41833984 16.68669922 14.07592773 17.5949707 C17.83310851 22.70365535 21.76354935 27.67755605 25.68823242 32.65795898 C26.52378662 33.72143555 26.52378662 33.72143555 27.3762207 34.80639648 C27.86840088 35.42909424 28.36058105 36.05179199 28.86767578 36.69335938 C30.04418945 38.27124023 30.04418945 38.27124023 31.04418945 40.27124023 C30.01293945 40.70436523 28.98168945 41.13749023 27.91918945 41.58374023 C17.96206533 46.5623023 9.25779989 54.82547927 1.2277832 62.39624023 C-1.03709567 64.34103783 -3.35791974 65.81021201 -5.95581055 67.27124023 C-13.83779355 57.10811863 -21.57564558 46.84013616 -29.26147461 36.52807617 C-30.73401366 34.56667113 -32.22460576 32.62209359 -33.72924805 30.68530273 C-34.46401367 29.72366211 -35.1987793 28.76202148 -35.95581055 27.77124023 C-36.57456055 26.97717773 -37.19331055 26.18311523 -37.83081055 25.36499023 C-38.95581055 23.27124023 -38.95581055 23.27124023 -39.01831055 21.25170898 C-37.39864354 18.23269733 -34.8040015 16.81494803 -31.95581055 15.08374023 C-31.03650757 14.50934204 -31.03650757 14.50934204 -30.09863281 13.92333984 C-22.60765929 9.32079124 -14.83750758 5.16303254 -6.95581055 1.27124023 C-6.04959961 0.81620117 -5.14338867 0.36116211 -4.2097168 -0.10766602 C-1.95581055 -0.72875977 -1.95581055 -0.72875977 0 0 Z " fill="#74CDF7" transform="translate(180.955810546875,72.728759765625)"/>
<path d="M0 0 C17.52424131 -0.27901425 34.66984334 -0.12270477 51.85546875 3.609375 C55.5678784 4.28558805 59.26588321 4.67749798 63 4 C65.12355567 2.17728073 65.12355567 2.17728073 66 0 C70.77676459 0.36051054 75.26874745 1.16485433 79.875 2.5 C80.80054688 2.7578125 81.72609375 3.015625 82.6796875 3.28125 C85 5 85 5 85.47045898 7.01245117 C85.63396851 8.18771362 85.63396851 8.18771362 85.80078125 9.38671875 C86.37902847 12.86791748 86.37902847 12.86791748 88.65820312 15.41845703 C90.83960519 16.5403941 93.01464963 17.4544055 95.3125 18.3125 C96.83200443 18.92726134 98.34901234 19.54823453 99.86328125 20.17578125 C100.53657471 20.43270752 101.20986816 20.68963379 101.90356445 20.9543457 C104.583998 22.2912849 106.71481698 24.07722047 109 26 C107.70098755 25.89824463 107.70098755 25.89824463 106.37573242 25.79443359 C96.0210038 25.03761864 85.69442287 24.68203021 75.3125 24.625 C74.47036957 24.61977325 73.62823914 24.61454651 72.7605896 24.60916138 C55.66482476 24.56050381 39.59877871 26.7917569 23 31 C17.34966503 24.43658808 11.76309916 17.8311776 6.4375 11 C5.63183594 9.96875 4.82617188 8.9375 3.99609375 7.875 C2.17666327 5.25445042 1.11640705 2.95964648 0 0 Z " fill="#5DA5EB" transform="translate(244,57)"/>
<path d="M0 0 C2.53448533 1.92234908 4.05384316 4.33618753 5.75 7 C6.75680536 8.46082885 7.76735389 9.91908357 8.78125 11.375 C9.55855469 12.51195313 9.55855469 12.51195313 10.3515625 13.671875 C13.13157218 17.5981446 16.18911384 21.29126272 19.25 25 C19.82331055 25.69996094 20.39662109 26.39992188 20.98730469 27.12109375 C22.32191267 28.74982344 23.66048777 30.3753013 25 32 C22.62215199 33.58523201 20.76708541 34.58840357 18.1640625 35.62109375 C17.42929688 35.91693359 16.69453125 36.21277344 15.9375 36.51757812 C14.40391989 37.12764251 12.87006832 37.73702494 11.3359375 38.34570312 C6.41938654 40.32693564 1.80600529 42.19399471 -2 46 C-8.58650069 37.69710188 -15.09784379 29.33557268 -21.5625 20.9375 C-22.26503906 20.03362549 -22.96757812 19.12975098 -23.69140625 18.19848633 C-24.68140625 16.90720825 -24.68140625 16.90720825 -25.69140625 15.58984375 C-26.57614624 14.44310181 -26.57614624 14.44310181 -27.47875977 13.27319336 C-29.05047926 10.92456871 -30.04882096 8.65387444 -31 6 C-7.37774459 -1.52115087 -7.37774459 -1.52115087 0 0 Z " fill="#6ABCF4" transform="translate(227,60)"/>
<path d="M0 0 C4.7670276 3.97629612 9.26450638 8.12663607 13.6328125 12.53515625 C14.23253876 13.13629745 14.83226501 13.73743866 15.45016479 14.35679626 C17.34416656 16.25633425 19.23464686 18.15933173 21.125 20.0625 C22.39950509 21.34203049 23.67424283 22.62132929 24.94921875 23.90039062 C27.29196905 26.25125651 29.63336726 28.6034506 31.97314453 30.95727539 C33.79983907 32.79461536 35.62914955 34.62914955 37.46118164 36.46118164 C40.00766392 39.00766392 42.54814684 41.56000756 45.08772278 44.1133728 C47.78407398 46.82321063 50.48316964 49.53030822 53.18237305 52.23730469 C54.59799159 53.65795294 56.01271144 55.0794973 57.42651367 56.50195312 C59.48635431 58.57403614 61.54950788 60.64277229 63.61328125 62.7109375 C64.23439285 63.33721039 64.85550446 63.96348328 65.49543762 64.60873413 C69.82901207 68.94285059 74.34317642 73.01598394 79 77 C71.45895142 79.51368286 60.13067058 73.85590965 53 71 C48.62482821 68.74872972 45.34334867 65.57864162 42 62 C41.0494037 61.04305079 40.09751613 60.08738304 39.14453125 59.1328125 C26.68226014 46.37425551 0 18.67416386 0 0 Z " fill="#69BAF1" transform="translate(133,372)"/>
<path d="M0 0 C1.9375 1.5625 1.9375 1.5625 3 4 C3.22886309 6.72034996 3.13702696 9.25946073 3 12 C4.216875 11.896875 5.43375 11.79375 6.6875 11.6875 C10.19603622 11.69998589 10.97872169 11.98566971 14.0625 14.0625 C16 17 16 17 16 20.625 C15.05456241 23.81585187 14.63628553 25.10187442 12 27 C9.04335481 28.4783226 6.25770263 28.06032783 3 28 C3.12375 29.85625 3.12375 29.85625 3.25 31.75 C3.23373935 34.80700305 3.10738813 35.828179 1.4375 38.5 C-1.9238388 40.56851618 -4.11959911 40.48505011 -8 40 C-10.375 39.0625 -10.375 39.0625 -12 37 C-12.62606327 34.00762978 -12.87206945 31.05114366 -13 28 C-14.5778125 28.1546875 -14.5778125 28.1546875 -16.1875 28.3125 C-20 28 -20 28 -22.9375 25.9375 C-25.52001338 22.25937488 -25.72125695 20.40768137 -25 16 C-23.5 13.5625 -23.5 13.5625 -21 12 C-18.24154167 11.67888176 -15.79456032 11.81369598 -13 12 C-13.12375 10.4221875 -13.12375 10.4221875 -13.25 8.8125 C-12.96269651 4.43112175 -12.05154419 3.05154419 -9 0 C-5.8168485 -1.59157575 -3.38676935 -0.77242108 0 0 Z " fill="#000000" transform="translate(46,382)"/>
<path d="M0 0 C2.375 1.5625 2.375 1.5625 4 4 C4.32695874 6.75805517 4.18630777 9.20538347 4 12 C5.2375 11.9175 6.475 11.835 7.75 11.75 C10.76252076 11.7713654 11.84348817 11.9060929 14.5 13.5 C16.61385602 17.02309336 16.9352036 19.99667231 16 24 C13.9375 26.5 13.9375 26.5 11 28 C7.1875 28.25 7.1875 28.25 4 28 C4.12375 29.5778125 4.12375 29.5778125 4.25 31.1875 C4 35 4 35 2.5 37.9375 C-0.52927279 40.43665005 -2.24727566 40.7459903 -6.09375 40.48046875 C-8 40 -8 40 -10.5 37.9375 C-12.30854114 34.3957736 -12.30788712 31.92556076 -12 28 C-13.051875 28.0825 -14.10375 28.165 -15.1875 28.25 C-19 28 -19 28 -21.9375 26.5 C-24.44669396 23.45855278 -24.69047708 21.75886447 -24.41015625 17.90625 C-24 16 -24 16 -22.5 13.5 C-18.85991277 11.31594766 -16.20345267 11.71976982 -12 12 C-12.12375 10.14375 -12.12375 10.14375 -12.25 8.25 C-12.26153532 4.99127351 -12.19423516 4.25250571 -10.125 1.5625 C-6.34288972 -1.21846344 -4.57308652 -1.1890025 0 0 Z " fill="#000000" transform="translate(24,472)"/>
<path d="M0 0 C1.9375 1.5625 1.9375 1.5625 3 4 C3.22886309 6.72034996 3.13702696 9.25946073 3 12 C4.2375 11.938125 5.475 11.87625 6.75 11.8125 C9.44942143 11.83161095 10.92767928 11.96847558 13.4375 13.0625 C15.76034026 15.94282192 15.87213096 18.35573222 16 22 C15.21395017 24.64398578 14.51393337 25.61930861 12.3125 27.25 C9.16454282 28.27095909 6.28456632 28.12632947 3 28 C3.12375 29.85625 3.12375 29.85625 3.25 31.75 C3.23373935 34.80700305 3.10738813 35.828179 1.4375 38.5 C-1.9238388 40.56851618 -4.11959911 40.48505011 -8 40 C-10.375 39.0625 -10.375 39.0625 -12 37 C-12.62606327 34.00762978 -12.87206945 31.05114366 -13 28 C-13.92232422 27.96132813 -13.92232422 27.96132813 -14.86328125 27.921875 C-21.41333333 27.46222222 -21.41333333 27.46222222 -24.0625 25.375 C-25.38696244 22.01969514 -25.44672088 19.57376708 -25 16 C-23.5 13.5625 -23.5 13.5625 -21 12 C-18.24154167 11.67888176 -15.79456032 11.81369598 -13 12 C-13.061875 10.39125 -13.061875 10.39125 -13.125 8.75 C-12.95462478 3.63874346 -12.95462478 3.63874346 -11 1 C-7.44020669 -1.76872813 -4.1946238 -1.06772242 0 0 Z " fill="#000000" transform="translate(127,457)"/>
<path d="M0 0 C1.90625 0.41015625 1.90625 0.41015625 4.40625 1.91015625 C6.59030234 5.55024348 6.18648018 8.20670358 5.90625 12.41015625 C6.958125 12.32765625 8.01 12.24515625 9.09375 12.16015625 C12.90625 12.41015625 12.90625 12.41015625 15.84375 13.91015625 C18.35294396 16.95160347 18.59672708 18.65129178 18.31640625 22.50390625 C17.90625 24.41015625 17.90625 24.41015625 16.40625 26.91015625 C12.76616277 29.09420859 10.10970267 28.69038643 5.90625 28.41015625 C6.03 30.26640625 6.03 30.26640625 6.15625 32.16015625 C6.1348846 35.17267701 6.0001571 36.25364442 4.40625 38.91015625 C0.88315664 41.02401227 -2.09042231 41.34535985 -6.09375 40.41015625 C-8.59375 38.34765625 -8.59375 38.34765625 -10.09375 35.41015625 C-10.34375 31.59765625 -10.34375 31.59765625 -10.09375 28.41015625 C-11.145625 28.49265625 -12.1975 28.57515625 -13.28125 28.66015625 C-17.09375 28.41015625 -17.09375 28.41015625 -20.03125 26.91015625 C-22.53040005 23.88088346 -22.8397403 22.16288059 -22.57421875 18.31640625 C-22.09375 16.41015625 -22.09375 16.41015625 -20.03125 13.91015625 C-16.4895236 12.10161511 -14.01931076 12.10226913 -10.09375 12.41015625 C-10.2175 10.83234375 -10.2175 10.83234375 -10.34375 9.22265625 C-10.09375 5.41015625 -10.09375 5.41015625 -8.59375 2.47265625 C-5.55230278 -0.03653771 -3.85261447 -0.28032083 0 0 Z " fill="#000000" transform="translate(494.09375,95.58984375)"/>
<path d="M0 0 C6.93 3.96 6.93 3.96 14 8 C12.44616792 11.10766415 9.85001327 11.6862046 6.75 13.125 C5.04070312 13.93324219 5.04070312 13.93324219 3.296875 14.7578125 C0.10611179 15.96001949 -1.66353288 16.50831104 -5 16 C-7.67578125 14.6875 -7.67578125 14.6875 -10.3125 13 C-11.19550781 12.443125 -12.07851562 11.88625 -12.98828125 11.3125 C-13.65214844 10.879375 -14.31601563 10.44625 -15 10 C-12.61753661 7.31874582 -10.1454496 5.88576541 -6.9375 4.3125 C-5.62072266 3.65701172 -5.62072266 3.65701172 -4.27734375 2.98828125 C-2 2 -2 2 0 2 C0 1.34 0 0.68 0 0 Z " fill="#DCDADD" transform="translate(161,49)"/>
<path d="M0 0 C0.66 0 1.32 0 2 0 C5.16832346 3.66926988 7.43954055 7.40704767 9 12 C7.94082231 18.76429386 4.31648396 23.84081853 0 29 C-3.29523909 25.24125475 -5.6098525 21.83076255 -7 17 C-6.03216896 10.90984342 -2.89517639 5.37039313 0 0 Z " fill="#DCD9DD" transform="translate(453,337)"/>
<path d="M0 0 C2.08143847 1.79760595 2.97163034 2.91691742 3.875 5.5625 C4.79319009 8.21036214 4.79319009 8.21036214 7.4375 9.25 C8.283125 9.4975 9.12875 9.745 10 10 C10.99 10.33 11.98 10.66 13 11 C13 11.66 13 12.32 13 13 C11.390625 14.078125 11.390625 14.078125 9.25 15.25 C5.19594663 17.65799269 3.28186063 19.91166638 1 24 C-0.74697781 22.41183836 -1.90568492 21.22006851 -2.84375 19.03125 C-4.27447567 16.51781302 -5.51731879 15.92766248 -8.125 14.75 C-8.84945313 14.41484375 -9.57390625 14.0796875 -10.3203125 13.734375 C-10.87460937 13.49203125 -11.42890625 13.2496875 -12 13 C-10.05271663 10.94260239 -8.47680536 9.68390324 -6 8.1875 C-2.6614655 5.75315193 -1.54531344 3.77743285 0 0 Z " fill="#3763B9" transform="translate(436,24)"/>
</svg>
